<?xml version="1.0" encoding="UTF-8" standalone="no"?>
<!DOCTYPE svg PUBLIC "-//W3C//DTD SVG 1.1//EN" "http://www.w3.org/Graphics/SVG/1.1/DTD/svg11.dtd">
<svg width="100%" height="100%" viewBox="0 0 66 93" version="1.1" xmlns="http://www.w3.org/2000/svg" xmlns:xlink="http://www.w3.org/1999/xlink" xml:space="preserve" xmlns:serif="http://www.serif.com/" style="fill-rule:evenodd;clip-rule:evenodd;stroke-linejoin:round;stroke-miterlimit:2;">
    <g transform="matrix(1,0,0,1,-930.872,-38.3463)">
        <g transform="matrix(0.959338,0,0,0.959338,930.872,38.3463)">
            <g transform="matrix(1,0,0,1,-789.07,-29.63)">
                <path d="M789.07,29.63L789.07,59.27C789.07,59.26 789.09,59.26 789.11,59.24C792.16,57.44 795.61,56.17 799.41,55.4C802.98,54.69 806.57,54.32 810.17,54.28L810.17,29.63L789.07,29.63ZM809.97,67.05C806.21,67.05 803.24,67.85 801.09,69.46C798.94,71.09 797.69,73.78 797.31,77.53L789.07,77.53L789.07,88.06C789.71,87.81 790.38,87.61 791.07,87.44C793.89,86.67 796.74,86.06 799.61,85.61C802.47,85.16 805.31,84.81 808.08,84.54C808.79,84.47 809.5,84.39 810.17,84.32L810.17,67.05L809.97,67.05ZM823.65,122.41C823.41,121.29 823.24,120.15 823.18,118.99C820.12,122.13 816.53,124.32 812.42,125.59C812.25,125.63 812.1,125.68 811.97,125.72L824.51,125.72C824.15,124.63 823.86,123.55 823.65,122.41ZM841.46,107.94L841.46,110.24C841.46,113.38 841.65,116.41 842,119.25C842.36,122.13 842.99,124.28 843.89,125.72L857.01,125.72L857.01,107.94L841.46,107.94Z" style="fill:white;fill-rule:nonzero;"/>
            </g>
            <g transform="matrix(1,0,0,1,-789.07,21.5)">
                <path d="M822.36,40.53L822.36,47.67C822.36,48.74 822.25,50.18 822.02,51.97C821.82,53.6 821.31,55.23 820.43,56.81C820.38,56.98 820.28,57.13 820.19,57.3C819.22,59.04 817.69,60.55 815.63,61.8C813.56,63.06 810.64,63.69 806.88,63.69C805.35,63.69 803.87,63.54 802.44,63.28C801,63.02 799.74,62.53 798.66,61.86C797.59,61.19 796.74,60.27 796.12,59.11C795.48,57.94 795.16,56.52 795.16,54.8C795.16,53 795.48,51.52 796.12,50.37C796.74,49.21 797.58,48.24 798.6,47.47C799.63,46.7 800.85,46.12 802.23,45.66C803.63,45.21 805.03,44.85 806.47,44.57C807.71,44.37 808.94,44.18 810.17,44.01C810.47,43.97 810.75,43.94 811.05,43.9C812.57,43.73 814.02,43.51 815.43,43.23C816.81,42.96 818.12,42.63 819.33,42.22C820.53,41.82 821.54,41.26 822.36,40.53Z" style="fill:white;fill-rule:nonzero;"/>
            </g>
        </g>
    </g>
</svg>
